<mxfile host="app.diagrams.net" agent="Mozilla/5.0 (Windows NT 10.0; Win64; x64) AppleWebKit/537.36 (KHTML, like Gecko) Chrome/131.0.0.0 Safari/537.36" version="26.0.1">
  <diagram name="Page-1" id="03018318-947c-dd8e-b7a3-06fadd420f32">
    <mxGraphModel dx="3354" dy="1258" grid="1" gridSize="10" guides="1" tooltips="1" connect="1" arrows="1" fold="1" page="1" pageScale="1" pageWidth="1100" pageHeight="850" background="none" math="0" shadow="0">
      <root>
        <mxCell id="0" />
        <mxCell id="1" parent="0" />
        <mxCell id="677b7b8949515195-1" value="" style="whiteSpace=wrap;html=1;rounded=0;shadow=0;labelBackgroundColor=none;strokeColor=#000000;strokeWidth=1;fillColor=none;fontFamily=Verdana;fontSize=12;fontColor=#000000;align=center;comic=1;" parent="1" vertex="1">
          <mxGeometry x="20" y="60" width="1060" height="550" as="geometry" />
        </mxCell>
        <mxCell id="gBdz1FRmPUKY2ZFgMoxz-1" value="&lt;font style=&quot;font-size: 18px;&quot;&gt;fourthwallacademy.com/Student/10/Sections/10&lt;/font&gt;" style="html=1;strokeWidth=1;shadow=0;dashed=0;shape=mxgraph.ios7ui.url;fillColor=#e0e0e0;strokeColor=#c0c0c0;buttonText=;strokeColor2=#222222;fontColor=#222222;fontSize=8;spacingTop=2;align=center;whiteSpace=wrap;" parent="1" vertex="1">
          <mxGeometry x="25" y="10" width="1050" height="40" as="geometry" />
        </mxCell>
        <mxCell id="CBU3p2uWpCq7XRt16fgI-3" value="&lt;font style=&quot;font-size: 16px;&quot;&gt;Course: Geometry&lt;/font&gt;" style="text;html=1;align=right;verticalAlign=middle;whiteSpace=wrap;rounded=0;" parent="1" vertex="1">
          <mxGeometry x="94" y="150" width="150" height="30" as="geometry" />
        </mxCell>
        <mxCell id="CBU3p2uWpCq7XRt16fgI-12" value="Go Back" style="html=1;shadow=0;dashed=0;shape=mxgraph.bootstrap.rrect;rSize=5;strokeColor=none;strokeWidth=1;fillColor=none;fontColor=#0085FC;whiteSpace=wrap;align=center;verticalAlign=middle;spacingLeft=0;fontStyle=0;fontSize=16;spacing=5;" parent="1" vertex="1">
          <mxGeometry x="94" y="325" width="100" height="40" as="geometry" />
        </mxCell>
        <mxCell id="CBU3p2uWpCq7XRt16fgI-16" value="Section Details" style="text;strokeColor=none;fillColor=none;html=1;fontSize=24;fontStyle=1;verticalAlign=middle;align=center;" parent="1" vertex="1">
          <mxGeometry x="445" y="90" width="210" height="40" as="geometry" />
        </mxCell>
        <mxCell id="8BGb5dk_agc61EFe4xYI-1" value="&lt;font style=&quot;font-size: 16px;&quot;&gt;Instructor: Titanium Templar&lt;/font&gt;" style="text;html=1;align=right;verticalAlign=middle;whiteSpace=wrap;rounded=0;" parent="1" vertex="1">
          <mxGeometry x="90" y="180" width="220" height="30" as="geometry" />
        </mxCell>
        <mxCell id="8BGb5dk_agc61EFe4xYI-2" value="&lt;font style=&quot;font-size: 16px;&quot;&gt;Start Date:&amp;nbsp; 01-01-2023&lt;/font&gt;" style="text;html=1;align=right;verticalAlign=middle;whiteSpace=wrap;rounded=0;" parent="1" vertex="1">
          <mxGeometry x="99" y="240" width="180" height="30" as="geometry" />
        </mxCell>
        <mxCell id="8BGb5dk_agc61EFe4xYI-3" value="&lt;font style=&quot;font-size: 16px;&quot;&gt;End Date:&amp;nbsp; 31-03-2023&lt;/font&gt;" style="text;html=1;align=right;verticalAlign=middle;whiteSpace=wrap;rounded=0;" parent="1" vertex="1">
          <mxGeometry x="94" y="270" width="180" height="30" as="geometry" />
        </mxCell>
        <mxCell id="8BGb5dk_agc61EFe4xYI-4" value="&lt;font style=&quot;font-size: 16px;&quot;&gt;Start Time:&amp;nbsp; 10:00&lt;/font&gt;" style="text;html=1;align=right;verticalAlign=middle;whiteSpace=wrap;rounded=0;" parent="1" vertex="1">
          <mxGeometry x="340" y="240" width="140" height="30" as="geometry" />
        </mxCell>
        <mxCell id="8BGb5dk_agc61EFe4xYI-5" value="&lt;font style=&quot;font-size: 16px;&quot;&gt;End Time:&amp;nbsp; 10:45&lt;/font&gt;" style="text;html=1;align=right;verticalAlign=middle;whiteSpace=wrap;rounded=0;" parent="1" vertex="1">
          <mxGeometry x="340" y="270" width="140" height="30" as="geometry" />
        </mxCell>
      </root>
    </mxGraphModel>
  </diagram>
</mxfile>
